<svg version="1.1" xmlns="http://www.w3.org/2000/svg" width="512px" height="512px" transform="rotate(0) scale(1, 1)">
<path d="M0 0 C6.55898079 6.10137748 10.62260956 13.70714401 14.75 21.5625 C15.89530738 23.71061107 17.04249117 25.85772259 18.19140625 28.00390625 C18.77164551 29.08816895 19.35188477 30.17243164 19.94970703 31.28955078 C22.62560849 36.23308889 25.40284735 41.11714199 28.1875 46 C33.13976163 54.69852823 37.96148535 63.45903504 42.671875 72.29101562 C48.13512635 82.47785561 53.92891211 92.47819139 59.6875 102.5 C59.69114563 101.79922333 59.69479126 101.09844666 59.69854736 100.37643433 C59.73649429 93.75576783 59.7934222 87.13556419 59.87140274 80.51524162 C59.91082676 77.11203017 59.94303954 73.70907546 59.95849609 70.30566406 C59.97660825 66.38833753 60.02658218 62.47172241 60.078125 58.5546875 C60.07935364 57.33884979 60.08058228 56.12301208 60.08184814 54.87033081 C60.19231285 48.47990826 60.30097915 44.31346477 64.6875 39.5 C69.2101559 35.41857882 72.47896353 34.17635464 78.6328125 34.2890625 C83.40085617 34.77855748 86.47862677 37.03180957 89.5 40.5625 C92.4066105 44.46566268 92.81891904 46.16632056 92.89282227 50.95947266 C92.91276749 52.10050446 92.93271271 53.24153625 92.95326233 54.41714478 C92.97833107 56.27186905 92.97833107 56.27186905 93.00390625 58.1640625 C93.02468735 59.42640717 93.04546844 60.68875183 93.06687927 61.98934937 C93.12127926 65.34632045 93.17150236 68.70330189 93.21972656 72.06036377 C93.26995042 75.48561065 93.32563186 78.91076829 93.38085938 82.3359375 C93.48811859 89.05722061 93.5898744 95.77857044 93.6875 102.5 C98.08145826 94.59103095 98.08145826 94.59103095 102.47509766 86.68188477 C105.80240556 80.692144 109.13046796 74.70282741 112.4609375 68.71484375 C117.62231373 59.43287957 122.78240352 50.15039579 127.90625 40.84765625 C128.25953873 40.20640808 128.61282745 39.56515991 128.9768219 38.90447998 C130.67226476 35.8266821 132.36644484 32.74820124 134.05834961 29.66845703 C135.92661296 26.27440069 137.80518598 22.88628196 139.6875 19.5 C140.2041925 18.56267532 140.2041925 18.56267532 140.73132324 17.60641479 C141.78684325 15.69473673 142.85139906 13.7883433 143.91796875 11.8828125 C144.54727295 10.75117676 145.17657715 9.61954102 145.82495117 8.45361328 C148.64689185 3.97860499 151.91347806 0.88701097 156.6875 -1.5 C164.3814748 -2.23967683 170.60095093 -1.03547372 177.6875 1.875 C178.5861377 2.23295654 179.48477539 2.59091309 180.41064453 2.9597168 C199.17401821 10.62726762 215.70927971 20.67991117 230.55078125 34.515625 C232.44314419 36.27306627 234.38005249 37.92426496 236.375 39.5625 C264.21927359 63.39201786 281.04836304 103.81468677 284.6875 139.5 C285.30655427 149.8189388 285.31095642 160.14900318 285.26391602 170.4831543 C285.24655752 174.43113444 285.2705226 178.37768189 285.30540562 182.32550335 C285.32750206 185.41853649 285.3259121 188.51123104 285.3176403 191.60431862 C285.31683123 193.05973724 285.32349039 194.51518339 285.33841133 195.97052574 C285.44958683 208.74077158 282.93775002 219.18817742 273.8515625 228.59765625 C263.54696653 237.65602852 251.40072417 238.94985309 238.18896484 238.88095093 C236.73552792 238.88441269 235.28209364 238.88918073 233.82866478 238.89513266 C229.85713813 238.90760114 225.88582907 238.90149133 221.91430187 238.89217401 C217.62247974 238.88536675 213.33069418 238.89587304 209.03887939 238.90411377 C200.64005512 238.91743544 192.24131139 238.91458035 183.842484 238.90587585 C177.01499808 238.89909354 170.1875347 238.89818495 163.36004639 238.9014473 C161.90101884 238.90213684 161.90101884 238.90213684 160.412516 238.90284032 C158.43636464 238.90379952 156.4602133 238.90477217 154.48406196 238.9057581 C135.96498833 238.9143074 117.4459593 238.90448507 98.926893 238.888357 C83.04564071 238.87495424 67.16445422 238.87728246 51.28320312 238.89111328 C32.82921834 238.9071772 14.37527261 238.91348347 -4.07871819 238.90427649 C-6.04749425 238.90332087 -8.01627031 238.90237776 -9.98504639 238.9014473 C-11.43796111 238.90075306 -11.43796111 238.90075306 -12.92022765 238.90004479 C-19.73745706 238.89745734 -26.55466164 238.90182062 -33.37188721 238.90888596 C-41.68275127 238.91731017 -49.99353035 238.91500143 -58.30438471 238.89904372 C-62.54259828 238.89117342 -66.78067031 238.8880482 -71.01888275 238.89799118 C-74.90252677 238.90696436 -78.78589871 238.90196233 -82.66951823 238.88605852 C-84.07046197 238.88272179 -85.47142894 238.88437974 -86.87235761 238.89168589 C-100.10624867 238.95538115 -111.11329413 236.63043779 -121.3203125 227.75390625 C-130.5943309 218.09848883 -132.07277255 206.6372782 -131.94140625 193.82421875 C-131.94223853 192.32705005 -131.94471137 190.82988148 -131.94871521 189.3327179 C-131.95155653 186.20517216 -131.93705777 183.0783489 -131.90942383 179.95092773 C-131.87566414 176.01535415 -131.88164102 172.08108474 -131.89955902 168.14545059 C-132.03989178 130.366274 -125.45287266 93.53013782 -102.3125 62.5 C-101.54292969 61.448125 -100.77335937 60.39625 -99.98046875 59.3125 C-92.15663281 48.78005393 -83.56011028 38.74941794 -73.3125 30.5 C-71.96865234 29.38238281 -71.96865234 29.38238281 -70.59765625 28.2421875 C-55.30817504 15.94119253 -20.63520354 -9.34424311 0 0 Z M149.6875 126.5 C146.66193602 131.03834597 145.98682438 135.13144313 146.6875 140.5 C148.57376741 145.84622079 151.66496415 148.83498098 156.6875 151.5 C161.46553625 152.84444977 166.34135229 152.67951892 171.265625 152.703125 C172.19163513 152.70882507 173.11764526 152.71452515 174.07171631 152.72039795 C176.02843084 152.72982562 177.9851611 152.73637304 179.94189453 152.74023438 C182.91337268 152.74992135 185.88415325 152.78095842 188.85546875 152.8125 C190.76301676 152.81903284 192.67056968 152.8242822 194.578125 152.828125 C195.45656067 152.8404718 196.33499634 152.8528186 197.24005127 152.86553955 C203.45494181 152.84344256 210.47047113 152.36857066 215.315979 148.0479126 C219.36345353 143.29544874 220.04351196 140.10525538 219.96484375 134.0390625 C219.55373556 130.27539598 218.2046364 128.28209813 215.6875 125.5 C209.07834204 120.29704586 203.17569638 120.3355435 195.109375 120.296875 C194.18336487 120.29117493 193.25735474 120.28547485 192.30328369 120.27960205 C190.34656916 120.27017438 188.3898389 120.26362696 186.43310547 120.25976562 C183.46162732 120.25007865 180.49084675 120.21904158 177.51953125 120.1875 C175.61198324 120.18096716 173.70443032 120.1757178 171.796875 120.171875 C170.91843933 120.1595282 170.04000366 120.1471814 169.13494873 120.13446045 C162.05703604 120.15962591 154.56916935 120.86449715 149.6875 126.5 Z " fill="#f3500f" transform="translate(179.3125,247.5)"/>
<path d="M0 0 C3.01289798 2.69833918 5.92740806 5.49073259 8.83984375 8.296875 C9.48566406 8.87953125 10.13148438 9.4621875 10.796875 10.0625 C31.37125194 29.14318681 41.69427396 59.43318504 43.12109375 86.828125 C44.13501475 118.9824017 32.46595765 149.06910015 10.80859375 172.640625 C-7.0153967 191.45255657 -31.29125407 204.75255922 -57.16015625 208.296875 C-57.90523437 208.40644531 -58.6503125 208.51601563 -59.41796875 208.62890625 C-89.71815729 212.37892958 -121.61862178 204.64092361 -146.16015625 186.296875 C-150.74401757 182.55316599 -154.95761924 178.4577438 -159.16015625 174.296875 C-159.82273438 173.69488281 -160.4853125 173.09289062 -161.16796875 172.47265625 C-181.74058684 153.47886699 -192.01894796 123.07682416 -193.44140625 95.765625 C-194.45532725 63.6113483 -182.78627015 33.52464985 -161.12890625 9.953125 C-143.3049158 -8.85880657 -119.02905843 -22.15880922 -93.16015625 -25.703125 C-92.41507812 -25.81269531 -91.67 -25.92226563 -90.90234375 -26.03515625 C-58.8571037 -30.00115131 -24.60534221 -21.45351146 0 0 Z " fill="#f3500f" transform="translate(331.16015625,52.703125)"/>
</svg>