<svg version="1.1" xmlns="http://www.w3.org/2000/svg" width="512px" height="512px" transform="rotate(0) scale(1, 1)">
<path d="M0 0 C0.72725281 -0.0065712 1.45450562 -0.0131424 2.20379639 -0.01991272 C4.61161406 -0.03962737 7.01936929 -0.05130678 9.42724609 -0.0612793 C10.66398134 -0.06739259 10.66398134 -0.06739259 11.92570114 -0.07362938 C16.29323831 -0.09448649 20.66074413 -0.10878739 25.02832031 -0.11816406 C29.52391462 -0.12920253 34.01901042 -0.16357346 38.51442909 -0.20333576 C41.98388542 -0.22957873 45.45322462 -0.23786288 48.92277145 -0.24144554 C50.57885463 -0.24629499 52.23493315 -0.25786182 53.89091873 -0.27648354 C64.44179597 -0.38771445 72.14512617 0.35354984 81.07568359 6.36450195 C87.95276853 13.39788427 89.92574939 20.52909091 90.00268555 30.17944336 C90.00925674 30.86476135 90.01582794 31.55007935 90.02259827 32.25616455 C90.04223034 34.51363254 90.05397341 36.7710342 90.06396484 39.02856445 C90.06804037 39.80459393 90.0721159 40.5806234 90.07631493 41.38016891 C90.0971363 45.49066649 90.11145295 49.60113111 90.12084961 53.71166992 C90.13188452 57.93125777 90.16626151 62.15031403 90.20602131 66.36971474 C90.23232307 69.63679908 90.24055354 72.90375953 90.24413109 76.1709404 C90.2489649 77.7248937 90.260486 79.27884269 90.27916908 80.83269119 C90.40285453 91.80439325 89.94828924 102.03336927 82.26318359 110.61450195 C73.12657036 118.801985 61.97995663 118.77918647 50.38818359 118.70825195 C48.81599692 118.71095408 47.24381189 118.71484246 45.67163086 118.71984863 C42.39371665 118.72570991 39.11624162 118.71729092 35.83837891 118.69848633 C31.66592944 118.67569829 27.49450961 118.6888397 23.32209778 118.71277618 C20.08069292 118.7273263 16.83952661 118.7225864 13.59811401 118.71226501 C12.06094232 118.70962307 10.52374797 118.71277684 8.98660278 118.72218323 C-1.29331352 118.77130619 -9.95290366 117.77159598 -18.98681641 112.55200195 C-25.56899201 105.40563987 -28.28432436 98.64610998 -28.33544922 89.07275391 C-28.34289658 88.01091637 -28.34289658 88.01091637 -28.35049438 86.92762756 C-28.36507464 84.59016945 -28.3719123 82.25277929 -28.37744141 79.9152832 C-28.38319777 78.28346252 -28.38895544 76.65164184 -28.39471436 75.01982117 C-28.40521364 71.59768358 -28.41106282 68.17556939 -28.41455078 64.75341797 C-28.42002279 60.38685515 -28.44402748 56.02060614 -28.47252274 51.65414143 C-28.49123068 48.28162256 -28.49635911 44.90917791 -28.49788666 41.53661156 C-28.50089708 39.92799356 -28.50887066 38.31937636 -28.52207184 36.71080971 C-28.60905778 25.29340078 -28.38779343 15.68677471 -20.14697266 6.90356445 C-14.20794037 1.70544114 -7.74816249 0.05794509 0 0 Z " fill="#ffffff" transform="translate(380.17431640625,334.822998046875)"/>
<path d="M0 0 C0.72725281 -0.0065712 1.45450562 -0.0131424 2.20379639 -0.01991272 C4.61161406 -0.03962737 7.01936929 -0.05130678 9.42724609 -0.0612793 C10.66398134 -0.06739259 10.66398134 -0.06739259 11.92570114 -0.07362938 C16.29323831 -0.09448649 20.66074413 -0.10878739 25.02832031 -0.11816406 C29.52391462 -0.12920253 34.01901042 -0.16357346 38.51442909 -0.20333576 C41.98388542 -0.22957873 45.45322462 -0.23786288 48.92277145 -0.24144554 C50.57885463 -0.24629499 52.23493315 -0.25786182 53.89091873 -0.27648354 C65.39474401 -0.39776075 74.48339164 0.38642648 83.32177734 8.46606445 C88.69389662 14.57772222 89.9416873 21.36156853 90.00268555 29.26538086 C90.00925674 29.97166626 90.01582794 30.67795166 90.02259827 31.40563965 C90.04227287 33.73828248 90.05398318 36.07086097 90.06396484 38.40356445 C90.06804037 39.20382427 90.0721159 40.00408409 90.07631493 40.82859421 C90.0971547 45.06761158 90.11146326 49.30659683 90.12084961 53.5456543 C90.13188636 57.90324514 90.16626022 62.26032146 90.20602131 66.61773109 C90.23229276 69.98600143 90.24055091 73.35415135 90.24413109 76.72251511 C90.24897295 78.32753331 90.26051771 79.93254701 90.27916908 81.53746414 C90.38902499 91.62015564 89.91029391 100.15470345 84.07177734 108.76293945 C75.04335269 117.69386492 64.82818905 118.7803066 52.6647644 118.72218323 C51.5378569 118.71528725 51.5378569 118.71528725 50.38818359 118.70825195 C48.81599692 118.71095408 47.24381189 118.71484246 45.67163086 118.71984863 C42.39371665 118.72570991 39.11624162 118.71729092 35.83837891 118.69848633 C31.66592944 118.67569829 27.49450961 118.6888397 23.32209778 118.71277618 C20.08069292 118.7273263 16.83952661 118.7225864 13.59811401 118.71226501 C12.06094232 118.70962307 10.52374797 118.71277684 8.98660278 118.72218323 C-1.89899803 118.77420048 -12.11011385 118.23303015 -20.61181641 110.61450195 C-28.85890741 101.40711439 -28.7758278 90.1597509 -28.70556641 78.4855957 C-28.70826813 76.88859319 -28.71215617 75.29159229 -28.71716309 73.69459534 C-28.72302457 70.36540903 -28.71460351 67.03665514 -28.69580078 63.70751953 C-28.67299409 59.46547557 -28.68616586 55.22444329 -28.71009064 50.98243618 C-28.7246242 47.69046055 -28.71990862 44.3987203 -28.70957947 41.10673714 C-28.70693395 39.54361917 -28.71010428 37.98047899 -28.71949768 36.41738701 C-28.7722599 25.17539887 -27.88815615 15.27571201 -19.88916016 6.64575195 C-14.03650474 1.63299925 -7.54493416 0.05642523 0 0 Z " fill="#ffffff" transform="translate(225.17431640625,334.822998046875)"/>
<path d="M0 0 C1.09153633 -0.01007584 1.09153633 -0.01007584 2.2051239 -0.02035522 C4.59669944 -0.03926071 6.98799318 -0.04325571 9.37963867 -0.04541016 C11.05344251 -0.05184363 12.72724523 -0.05857239 14.40104675 -0.06558228 C17.90541183 -0.07753668 21.40967848 -0.08126503 24.9140625 -0.08007812 C29.38606732 -0.07987512 33.85743532 -0.10716566 38.32928944 -0.14162254 C41.78589224 -0.16395298 45.24234332 -0.16791378 48.69901085 -0.16685867 C50.34670898 -0.16920583 51.99441186 -0.1779791 53.64203835 -0.19352341 C65.10462602 -0.2915367 74.17725833 0.53143792 82.98120117 8.57958984 C88.35332044 14.69124761 89.60111113 21.47509392 89.66210938 29.37890625 C89.66868057 30.08519165 89.67525177 30.79147705 89.68202209 31.51916504 C89.7016967 33.85180787 89.71340701 36.18438636 89.72338867 38.51708984 C89.7274642 39.31734966 89.73153973 40.11760948 89.73573875 40.9421196 C89.75657852 45.18113697 89.77088709 49.42012222 89.78027344 53.65917969 C89.79131018 58.01677053 89.82568405 62.37384685 89.86544514 66.73125648 C89.89171659 70.09952682 89.89997474 73.46767674 89.90355492 76.8360405 C89.90839678 78.4410587 89.91994154 80.0460724 89.93859291 81.65098953 C90.05057215 91.92856243 89.2906565 100.17446633 83.73510742 109.10302734 C76.74516539 115.89880432 68.95270288 118.52893097 59.22387695 118.56518555 C58.53505432 118.57029648 57.84623169 118.57540741 57.13653564 118.58067322 C54.88023973 118.59446848 52.62425277 118.59362001 50.36791992 118.59130859 C48.78522633 118.59520129 47.20253376 118.59953714 45.61984253 118.60429382 C42.3097596 118.61173458 38.99978336 118.61148055 35.68969727 118.60620117 C31.46779667 118.6004119 27.24633554 118.61733464 23.02450752 118.64054585 C19.75749194 118.65534646 16.49058063 118.65614628 13.22353745 118.65303612 C11.66795863 118.65354624 10.1123735 118.65872532 8.55682755 118.66884804 C-2.02604726 118.72926772 -11.49164802 118.71220499 -19.82739258 111.29052734 C-20.62790039 110.60990234 -21.4284082 109.92927734 -22.25317383 109.22802734 C-29.22846044 100.16858774 -29.09930499 89.68178885 -29.01098633 78.78271484 C-29.0111417 77.20573866 -29.01263691 75.62876211 -29.01539612 74.05178833 C-29.01677204 70.76547117 -29.00435607 67.47959474 -28.98144531 64.19335938 C-28.95301578 60.00290786 -28.9558215 55.81318457 -28.96853542 51.62267876 C-28.9755225 48.37279142 -28.96766973 45.12306947 -28.9552784 41.87320328 C-28.95079657 40.32880413 -28.95039816 38.78438703 -28.9543438 37.23998642 C-28.97070983 25.20463111 -28.04326931 15.44141332 -19.51489258 6.29052734 C-13.36658555 1.42311761 -7.75887505 0.04516472 0 0 Z " fill="#ffffff" transform="translate(70.514892578125,334.70947265625)"/>
<path d="M0 0 C6.97311405 5.59029579 12.52822712 11.68028669 16.41210938 19.81054688 C16.79882812 20.59945312 17.18554688 21.38835937 17.58398438 22.20117188 C23.66391686 35.85899123 23.79479301 50.91806023 18.71289062 64.88867188 C12.67090915 78.46045008 2.83278976 89.03113707 -10.70507812 95.24023438 C-25.13377052 100.59722857 -40.90642129 100.65711394 -55.15820312 94.74414062 C-69.04447634 88.31059202 -79.23073148 77.48314723 -84.65039062 63.06835938 C-89.12684708 47.51267319 -88.16461974 32.29902622 -80.58789062 17.81054688 C-73.19619335 5.00707124 -62.30626689 -4.05236739 -48.06445312 -8.22070312 C-31.47513116 -12.10713864 -14.0346139 -10.51301336 0 0 Z " fill="#ffffff" transform="translate(288.587890625,69.189453125)"/>
<path d="M0 0 C2.16839674 1.54885481 2.73952616 2.79649359 3.75 5.25 C3.99050903 7.36346436 3.99050903 7.36346436 3.97705078 9.65136719 C3.97682419 10.9422525 3.97682419 10.9422525 3.97659302 12.25921631 C3.96627045 13.17914368 3.95594788 14.09907104 3.9453125 15.046875 C3.9424826 15.99564514 3.93965271 16.94441528 3.93673706 17.92193604 C3.92555448 20.94808639 3.9004533 23.9739393 3.875 27 C3.86496772 29.05338114 3.8558423 31.10676692 3.84765625 33.16015625 C3.82562141 38.19021854 3.79110462 43.22005886 3.75 48.25 C5.03213882 48.24111755 6.31427765 48.23223511 7.63526917 48.2230835 C19.77136659 48.14167982 31.90740797 48.08188269 44.04371738 48.04275131 C50.28178428 48.02195656 56.51962918 47.99378807 62.75756836 47.94824219 C68.78764437 47.90449404 74.81750806 47.88080203 80.84773064 47.87049103 C83.13801346 47.86315138 85.42828585 47.84882013 87.71847725 47.82707977 C108.18282568 47.64070015 126.03080258 49.4554168 141.80859375 64.11328125 C152.75044235 76.15591945 159.38859449 90.59199228 159.078125 107.046875 C158.59061353 110.32016629 157.15428895 112.0578542 154.75 114.25 C151.9701184 115.6399408 149.8313674 115.43488204 146.75 115.25 C144.27167741 114.42389247 143.13538046 113.85078322 141.72265625 111.6484375 C140.40365199 108.3959531 139.97257827 105.07122589 139.4375 101.625 C137.65613437 91.28090708 133.96639638 81.92489128 125.33984375 75.4375 C116.00095656 69.13276603 107.35882783 66.80029277 96.15966797 66.81762695 C95.15358994 66.8074353 94.1475119 66.79724365 93.11094666 66.78674316 C89.82130217 66.75680976 86.53194981 66.74737731 83.2421875 66.73828125 C80.94718473 66.72142001 78.6521911 66.70326783 76.35720825 66.68388367 C70.34365703 66.63653475 64.33014294 66.60662768 58.31646729 66.58044434 C52.16923697 66.55056246 46.02213437 66.50405839 39.875 66.45898438 C27.83340036 66.37312317 15.7917743 66.30570159 3.75 66.25 C3.76047363 67.53165039 3.77094727 68.81330078 3.78173828 70.13378906 C3.81794398 74.88978277 3.84090262 79.6457643 3.85986328 84.40185547 C3.86991954 86.46014454 3.88356629 88.51841933 3.90087891 90.57666016 C3.92514354 93.53551763 3.93648688 96.49418617 3.9453125 99.453125 C3.95563507 100.37305237 3.96595764 101.29297974 3.97659302 102.24078369 C3.97674408 103.1013739 3.97689514 103.96196411 3.97705078 104.84863281 C3.981492 105.60364075 3.98593323 106.35864868 3.99050903 107.13653564 C3.71316923 109.57364908 3.01885644 111.16103808 1.75 113.25 C-1.47293286 115.5520949 -4.36996324 115.72510654 -8.25 115.25 C-10.94990662 113.45006226 -12.7918865 112.166227 -14.25 109.25 C-14.33918777 107.86090696 -14.36759541 106.46763093 -14.36352539 105.07568359 C-14.36344986 104.21494232 -14.36337433 103.35420105 -14.36329651 102.46737671 C-14.35813522 101.53712677 -14.35297394 100.60687683 -14.34765625 99.6484375 C-14.34553383 98.22103745 -14.34553383 98.22103745 -14.34336853 96.76480103 C-14.33776012 93.71816903 -14.32520619 90.67160987 -14.3125 87.625 C-14.30748608 85.56250106 -14.30292299 83.50000097 -14.29882812 81.4375 C-14.28778796 76.37497183 -14.27051767 71.31249827 -14.25 66.25 C-27.47245121 66.28814392 -40.69462119 66.34763239 -53.91685104 66.43390274 C-60.05737075 66.47330678 -66.19774855 66.50553006 -72.33837891 66.52099609 C-78.27134961 66.53620908 -84.20393002 66.57073738 -90.13672638 66.61830902 C-92.39313604 66.63307494 -94.64960144 66.64103825 -96.90605927 66.64188385 C-113.61668765 66.65443716 -127.39770492 67.18705848 -140.25 79.25 C-146.85635275 87.22110204 -149.90021033 95.95273424 -150.6875 106.1875 C-150.96053546 109.36722544 -151.14072265 110.10899697 -153.1875 112.75 C-156.702325 115.30623636 -158.89055757 115.67739632 -163.25 115.25 C-165.94990662 113.45006226 -167.7918865 112.166227 -169.25 109.25 C-171.17310376 94.55874833 -164.92057976 80.70978943 -156.69921875 69.05078125 C-147.55712464 57.50406685 -133.53593931 50.66388098 -119.25 48.25 C-115.69292228 47.99143927 -112.15477399 47.99594935 -108.58959961 48.02294922 C-107.56416046 48.02265717 -106.53872131 48.02236511 -105.48220825 48.02206421 C-102.12216471 48.02344786 -98.76234814 48.03896345 -95.40234375 48.0546875 C-93.06108216 48.05842106 -90.71981901 48.06126641 -88.3785553 48.06326294 C-82.23832836 48.07087236 -76.09819713 48.09049766 -69.95800781 48.1126709 C-63.68360692 48.13318743 -57.40919045 48.14227705 -51.13476562 48.15234375 C-38.83980187 48.17374615 -26.54490892 48.20784947 -14.25 48.25 C-14.26047363 46.96834961 -14.27094727 45.68669922 -14.28173828 44.36621094 C-14.31794398 39.61021723 -14.34090262 34.8542357 -14.35986328 30.09814453 C-14.36991954 28.03985546 -14.38356629 25.98158067 -14.40087891 23.92333984 C-14.42514354 20.96448237 -14.43648688 18.00581383 -14.4453125 15.046875 C-14.45563507 14.12694763 -14.46595764 13.20702026 -14.47659302 12.25921631 C-14.47674408 11.3986261 -14.47689514 10.53803589 -14.47705078 9.65136719 C-14.481492 8.89635925 -14.48593323 8.14135132 -14.49050903 7.36346436 C-14.21316923 4.92635092 -13.51885644 3.33896192 -12.25 1.25 C-8.4667835 -1.4522975 -4.33054333 -1.44351444 0 0 Z " fill="#ffffff" transform="translate(261.25,198.75)"/>
</svg>