<svg xmlns="http://www.w3.org/2000/svg" version="1.0" width="512.000000pt" height="512.000000pt" viewBox="0 0 512.000000 512.000000" preserveAspectRatio="xMidYMid meet">

<g transform="translate(0.000000,512.000000) scale(0.100000,-0.100000)" fill="#f3500f" stroke="none">
<path d="M3610 4779 c-14 -6 -137 -122 -275 -259 -207 -205 -257 -250 -290 -259 -56 -15 -945 -15 -1000 0 -33 9 -84 55 -290 259 -268 266 -276 272 -357 255 -40 -9 -93 -61 -849 -826 l-549 -557 0 -67 0 -68 223 -226 c260 -264 272 -284 288 -437 16 -147 36 -231 73 -309 l34 -69 -19 -28 c-102 -142 -105 -365 -9 -510 67 -101 183 -179 296 -199 l61 -11 11 -61 c30 -163 147 -296 308 -351 26 -9 60 -16 75 -16 34 0 37 -4 49 -72 33 -173 173 -316 349 -358 51 -12 161 -9 222 5 23 6 28 1 55 -50 118 -233 429 -316 646 -172 66 44 189 171 215 222 l19 36 24 -19 c138 -107 349 -122 499 -35 111 64 190 172 217 294 9 41 18 76 20 78 2 2 27 8 56 12 173 27 342 201 363 373 l7 53 61 11 c140 26 263 120 323 247 65 135 63 276 -6 411 l-41 82 30 49 c70 114 115 259 127 413 4 47 12 97 18 112 6 14 122 141 258 281 270 279 277 288 247 369 -10 28 -182 207 -679 709 -405 409 -677 677 -697 686 -37 15 -77 16 -113 2z m602 -904 l536 -540 -192 -195 c-246 -250 -259 -274 -285 -520 -8 -87 -53 -240 -70 -240 -3 0 -169 163 -369 363 l-363 363 71 48 c126 87 278 273 296 364 9 45 -20 116 -58 143 -41 30 -106 36 -152 14 -27 -13 -52 -41 -92 -101 -67 -102 -135 -163 -239 -215 -98 -48 -172 -63 -290 -56 -75 4 -109 12 -205 48 -108 41 -121 44 -215 44 -166 0 -242 -34 -387 -176 -104 -100 -189 -140 -312 -146 -59 -3 -107 0 -135 9 l-43 13 341 410 c187 226 353 417 368 425 22 12 93 16 348 21 441 9 424 2 701 280 104 104 194 188 199 187 6 -2 251 -246 547 -543z m-2578 346 c161 -158 201 -193 256 -219 36 -17 82 -33 103 -37 20 -4 37 -9 37 -11 0 -2 -153 -188 -340 -412 -224 -268 -344 -420 -351 -444 -27 -86 22 -158 156 -233 103 -58 203 -86 326 -92 231 -12 406 56 584 226 44 43 93 82 108 89 45 19 102 14 180 -17 124 -49 185 -62 330 -68 l138 -6 512 -518 c281 -285 518 -531 526 -546 20 -39 18 -104 -5 -144 -40 -68 -118 -96 -191 -68 -15 5 -104 86 -198 178 -179 178 -198 190 -270 177 -40 -8 -80 -38 -100 -76 -18 -34 -20 -102 -4 -133 6 -12 80 -92 164 -177 84 -85 160 -169 169 -187 62 -121 -54 -264 -181 -223 -28 9 -82 56 -203 175 -91 90 -175 168 -187 174 -12 6 -41 11 -65 11 -94 0 -162 -91 -137 -184 9 -33 41 -72 169 -201 87 -88 166 -175 175 -194 22 -44 16 -118 -13 -158 -45 -63 -137 -81 -204 -40 -20 12 -97 85 -171 162 -74 77 -159 157 -190 178 -67 46 -160 86 -202 87 -43 0 -51 9 -59 65 -15 113 -113 254 -218 313 -34 19 -46 31 -42 42 26 59 46 133 51 189 15 177 -94 361 -262 441 -62 29 -82 34 -170 38 -84 3 -110 0 -160 -18 -33 -12 -68 -24 -77 -27 -12 -3 -23 7 -38 38 -29 55 -112 137 -174 172 -165 92 -368 70 -518 -55 -25 -21 -49 -34 -53 -29 -3 6 -10 50 -16 98 -33 300 -69 370 -318 617 l-150 150 537 542 c295 298 541 542 546 543 6 1 96 -84 200 -188z m-374 -1940 c65 -34 97 -126 69 -198 -14 -37 -256 -282 -296 -299 -103 -44 -213 27 -213 138 0 27 6 61 14 76 16 30 260 273 291 290 31 17 97 14 135 -7z m657 -222 c63 -39 88 -123 59 -194 -16 -38 -440 -473 -494 -507 -129 -80 -285 68 -216 205 19 37 443 469 489 498 41 26 118 25 162 -2z m221 -656 c58 -43 82 -135 51 -195 -17 -33 -238 -259 -279 -285 -71 -46 -172 -16 -210 62 -25 52 -25 95 -1 143 23 44 255 277 291 291 37 16 117 7 148 -16z m408 -422 c68 -31 103 -109 83 -184 -15 -57 -121 -163 -173 -172 -83 -16 -163 30 -184 107 -19 68 -1 114 70 185 60 60 94 79 148 82 8 0 33 -8 56 -18z" fill="#f3500f"/>
</g>
</svg>