<svg version="1.1" xmlns="http://www.w3.org/2000/svg" width="512px" height="512px" transform="rotate(0) scale(1, 1)">
<path d="M0 0 C2.18085285 0.00315012 4.36033005 -0.02036031 6.54101562 -0.0456543 C44.38453878 -0.21510649 79.45909091 16.88536365 106.13476562 42.94067383 C106.89789063 43.72442383 107.66101563 44.50817383 108.44726562 45.31567383 C108.94226563 45.76555664 109.43726563 46.21543945 109.94726562 46.67895508 C130.88489543 66.21104955 142.29030192 95.78863783 147.44726562 123.31567383 C147.62 124.21616455 147.79273438 125.11665527 147.97070312 126.04443359 C148.91331341 132.51473852 148.69215434 139.09898562 148.69726562 145.62817383 C148.69794037 146.39644501 148.69861511 147.16471619 148.6993103 147.95626831 C148.68380054 159.04110822 148.31201146 169.5469907 145.44726562 180.31567383 C145.27565918 180.99758789 145.10405273 181.67950195 144.92724609 182.38208008 C138.27134678 208.60120802 125.05049201 230.79649911 106.44726562 250.31567383 C105.68555054 251.11569824 105.68555054 251.11569824 104.90844727 251.93188477 C80.27651532 277.24599633 44.13862973 292.5820755 8.86523438 293.51879883 C-4.23915576 293.6826825 -16.72965177 293.0856507 -29.55273438 290.31567383 C-30.84179688 290.03723633 -32.13085938 289.75879883 -33.45898438 289.47192383 C-55.70153909 284.05146932 -76.25481191 273.22948676 -93.55273438 258.31567383 C-94.08092773 257.86579102 -94.60912109 257.4159082 -95.15332031 256.95239258 C-107.10830953 246.69047234 -116.56919579 234.84130189 -124.55273438 221.31567383 C-124.93316895 220.67533203 -125.31360352 220.03499023 -125.70556641 219.37524414 C-144.97704097 186.42854361 -149.85598858 146.06286574 -140.26367188 109.19458008 C-134.40511302 88.01410048 -125.00425976 68.99051082 -110.55273438 52.31567383 C-109.86824219 51.51000977 -109.18375 50.7043457 -108.47851562 49.87426758 C-81.14033332 18.51143365 -41.7039286 -0.1253346 0 0 Z " fill="#ffffff" transform="translate(363.552734375,194.684326171875)"/>
<path d="M0 0 C0.91145782 0.00060425 1.82291565 0.0012085 2.76199341 0.00183105 C16.29695318 0.0261876 29.63561693 0.34895378 43.0625 2.1875 C44.0613623 2.31640625 45.06022461 2.4453125 46.08935547 2.578125 C83.80781011 7.52105611 127.10677666 17.77837122 156.0625 44.1875 C157.18785156 45.2084375 157.18785156 45.2084375 158.3359375 46.25 C166.48790389 54.00800519 171.19341343 62.10293493 172.02734375 73.4140625 C172.07697141 77.32913361 171.43785714 80.53751373 170.0625 84.1875 C169.71058594 85.13689453 169.71058594 85.13689453 169.3515625 86.10546875 C160.09700563 107.37396871 134.24345608 119.79169818 114.0625 128.1875 C78.46990408 142.11082449 40.23019467 147.41228522 2.1875 147.4375 C1.26686768 147.43817474 0.34623535 147.43884949 -0.60229492 147.43954468 C-54.58355745 147.37715814 -118.12428653 137.985412 -158.96875 99.26171875 C-165.86081621 91.96156967 -170.24165916 83.81741861 -170.6875 73.6875 C-170.08488151 60.84910612 -163.14648588 51.67274444 -153.9375 43.1875 C-112.53670349 8.63942746 -52.12650275 -0.06381028 0 0 Z " fill="#ffffff" transform="translate(169.9375,23.8125)"/>
<path d="M0 0 C1.64713542 0.8984375 3.29427083 1.796875 4.94140625 2.6953125 C6.45371826 3.51950684 6.45371826 3.51950684 7.99658203 4.36035156 C9.78825892 5.33847723 11.57874147 6.31880333 13.36669922 7.30371094 C60.65174878 33.31315967 115.51640571 43.2432085 169.125 43.1875 C169.8458075 43.1882251 170.56661499 43.1889502 171.30926514 43.18969727 C186.26816049 43.18805474 201.09708151 42.28904931 216 41 C214.57210435 44.76088852 213.08050576 47.33153882 210.4375 50.375 C200.85585837 62.08782051 193.22602122 76.36166334 187.6484375 90.40234375 C186 93 186 93 183.2421875 93.86328125 C181.63730469 93.93095703 181.63730469 93.93095703 180 94 C178.95070312 94.05542969 177.90140625 94.11085938 176.8203125 94.16796875 C122.86144334 94.45316362 59.93186618 86.71861741 17 51 C16.19046875 50.39285156 15.3809375 49.78570312 14.546875 49.16015625 C11.70812446 46.75244299 9.61473568 44.22092086 7.375 41.25 C6.61960937 40.26515625 5.86421875 39.2803125 5.0859375 38.265625 C-0.31225195 29.81452692 -0.39002265 22.83533096 -0.1875 13 C-0.17396484 11.74832031 -0.16042969 10.49664062 -0.14648438 9.20703125 C-0.11133786 6.13756884 -0.06213226 3.06901491 0 0 Z " fill="#ffffff" transform="translate(0,175)"/>
<path d="M0 0 C1.64713542 0.8984375 3.29427083 1.796875 4.94140625 2.6953125 C6.45371826 3.51950684 6.45371826 3.51950684 7.99658203 4.36035156 C9.78825892 5.33847723 11.57874147 6.31880333 13.36669922 7.30371094 C66.74665326 36.66570148 126.15866688 42.72379992 186 44 C186.3714917 44.89968506 186.7429834 45.79937012 187.12573242 46.72631836 C190.14818511 53.93054031 193.31010122 60.83744097 197.3125 67.5625 C197.77889893 68.35825439 198.24529785 69.15400879 198.72583008 69.97387695 C202.82560718 76.88524793 207.27483012 83.50143303 212 90 C209.21154863 92.78845137 207.27425398 92.39960835 203.3671875 92.6328125 C202.69769073 92.67437469 202.02819397 92.71593689 201.33840942 92.75875854 C199.9112524 92.84539253 198.48381234 92.92746376 197.05615234 93.00537109 C194.93118538 93.12191842 192.80753756 93.25294659 190.68359375 93.38671875 C132.21067253 96.91928442 63.94562762 88.99938537 17 51 C16.1853125 50.39027344 15.370625 49.78054688 14.53125 49.15234375 C11.70196384 46.74657728 9.60970124 44.21424288 7.375 41.25 C6.61960937 40.26515625 5.86421875 39.2803125 5.0859375 38.265625 C-0.31225195 29.81452692 -0.39002265 22.83533096 -0.1875 13 C-0.17396484 11.74832031 -0.16042969 10.49664062 -0.14648438 9.20703125 C-0.11133786 6.13756884 -0.06213226 3.06901491 0 0 Z " fill="#ffffff" transform="translate(0,370)"/>
<path d="M0 0 C3.97013637 1.53716393 7.46435249 3.37934275 11.125 5.5625 C55.81617883 31.53680904 108.20642618 40.98563075 159.3125 42.5625 C160.65039916 42.60585709 161.98828988 42.64947567 163.32617188 42.69335938 C166.55070824 42.7981277 169.77530363 42.90030017 173 43 C172.9292627 43.79921875 172.85852539 44.5984375 172.78564453 45.421875 C172.15595362 52.96488595 171.84028543 60.43222469 171.875 68 C171.87693359 69.03511719 171.87886719 70.07023437 171.88085938 71.13671875 C171.92227636 78.47212653 172.25347945 85.70068797 173 93 C122.58447264 94.389741 60.55859761 85.98171674 20 53 C18.69095703 51.93652344 18.69095703 51.93652344 17.35546875 50.8515625 C10.03868188 44.59883609 2.43631717 36.60836197 0 27 C-0.35478938 22.34692813 -0.28286252 17.72548286 -0.1875 13.0625 C-0.17396484 11.80630859 -0.16042969 10.55011719 -0.14648438 9.25585938 C-0.11128591 6.17012721 -0.06204305 3.08528976 0 0 Z " fill="#ffffff" transform="translate(0,273)"/>
</svg>