<svg xmlns="http://www.w3.org/2000/svg" version="1.0" width="512.000000pt" height="512.000000pt" viewBox="0 0 512.000000 512.000000" preserveAspectRatio="xMidYMid meet">

<g transform="translate(0.000000,512.000000) scale(0.100000,-0.100000)" fill="#FB8F10" stroke="none">
<path d="M1675 4814 c-364 -42 -605 -125 -865 -298 -745 -495 -1020 -1468 -640 -2264 l50 -104 -55 -331 c-30 -183 -55 -345 -55 -360 0 -34 20 -75 52 -105 50 -46 66 -46 433 15 l342 57 99 -46 c211 -97 487 -168 659 -168 49 0 51 -1 79 -48 87 -142 213 -291 341 -404 544 -481 1309 -590 1971 -283 l99 46 338 -56 c220 -37 350 -55 373 -50 46 8 101 64 110 111 5 26 -11 142 -49 374 l-57 338 44 93 c235 503 234 1063 -3 1555 -264 549 -766 918 -1369 1009 -53 8 -119 15 -147 15 -49 0 -51 1 -79 48 -213 346 -561 626 -947 760 -218 77 -531 118 -724 96z m419 -324 c282 -56 539 -189 743 -384 228 -218 367 -460 440 -766 34 -146 43 -399 19 -553 -99 -630 -566 -1120 -1196 -1254 -123 -26 -469 -26 -590 1 -135 29 -256 72 -386 136 -66 33 -131 60 -145 60 -13 0 -138 -18 -277 -41 -138 -23 -254 -40 -256 -38 -2 2 16 125 41 272 l45 268 -71 147 c-116 244 -155 409 -156 667 0 194 17 306 70 472 164 502 583 886 1095 1002 52 12 129 26 170 31 109 13 339 3 454 -20z m1605 -926 c51 -14 132 -41 180 -60 474 -195 802 -594 913 -1108 18 -83 22 -134 22 -286 0 -161 -3 -201 -26 -305 -30 -139 -82 -286 -142 -400 -24 -44 -46 -91 -49 -105 -4 -14 14 -145 38 -290 24 -145 43 -265 42 -266 -1 -1 -124 19 -274 44 l-272 45 -123 -61 c-142 -70 -260 -112 -408 -143 -138 -29 -408 -32 -545 -6 -215 41 -438 134 -605 252 -97 68 -246 208 -313 293 l-47 60 66 11 c36 7 117 27 179 46 91 28 119 33 142 25 18 -7 324 -9 850 -8 812 3 822 3 849 24 50 37 68 70 68 124 0 54 -18 87 -68 124 -27 21 -39 21 -631 24 l-604 2 112 109 c62 60 137 141 167 180 l55 71 428 0 c467 0 459 -1 510 59 38 45 43 94 15 149 -45 89 -32 86 -428 92 l-349 5 20 45 c22 48 72 199 89 268 l11 42 280 0 c312 0 331 3 368 64 50 80 25 172 -59 214 -42 21 -55 22 -297 22 l-253 0 0 121 c0 170 -23 313 -86 538 -7 23 -6 23 37 16 24 -4 86 -18 138 -31z" fill="#FB8F10"/>
<path d="M1705 4000 c-240 -48 -425 -272 -425 -515 0 -81 68 -149 150 -149 84 0 136 53 150 151 11 80 34 126 82 167 107 92 267 65 339 -57 27 -47 30 -59 27 -123 -3 -57 -8 -79 -31 -112 -39 -60 -92 -91 -173 -104 -77 -11 -109 -27 -139 -66 -19 -25 -20 -45 -23 -295 -3 -297 0 -318 62 -356 80 -50 172 -25 214 59 20 40 22 58 22 210 l0 165 73 34 c84 40 196 145 239 227 106 199 66 459 -96 619 -125 124 -303 179 -471 145z" fill="#FB8F10"/>
<path d="M1735 2291 c-46 -28 -66 -56 -72 -100 -7 -54 2 -84 38 -126 62 -71 167 -65 226 12 50 66 28 172 -45 216 -39 22 -109 22 -147 -2z" fill="#FB8F10"/>
</g>
</svg>