<svg version="1.1" xmlns="http://www.w3.org/2000/svg" width="512px" height="512px" transform="rotate(0) scale(1, 1)">
<path d="M0 0 C1.23013824 -0.00524185 2.46027649 -0.0104837 3.72769165 -0.0158844 C6.32138314 -0.02228789 8.91510373 -0.02098939 11.50878906 -0.01245117 C15.45691162 -0.00394857 19.40358285 -0.03271775 23.3515625 -0.06445312 C25.8802079 -0.06606562 28.40885585 -0.06548669 30.9375 -0.0625 C32.6926442 -0.07935097 32.6926442 -0.07935097 34.48324585 -0.09654236 C44.14749965 -0.0152043 52.36322448 1.99932051 59.5703125 8.73046875 C66.81903562 16.79282405 68.40063453 24.84843157 68.36898804 35.41400146 C68.37351915 36.5227986 68.37805026 37.63159573 68.38271868 38.77399278 C68.39538317 42.4909724 68.39374096 46.20780587 68.39208984 49.92480469 C68.39807383 52.58923894 68.40482249 55.25366174 68.41244507 57.91809082 C68.42904279 64.40573436 68.43455407 70.89334155 68.43566982 77.38100454 C68.43662096 82.65633423 68.44073452 87.93165195 68.44707108 93.20697784 C68.46468077 108.17268612 68.47391047 123.13836575 68.47241013 138.10408446 C68.47233022 138.91052761 68.4722503 139.71697075 68.47216797 140.54785156 C68.47208621 141.35528267 68.47200445 142.16271377 68.47192021 142.99461249 C68.47110757 156.07577444 68.49024041 169.15682118 68.5184447 182.23794982 C68.54719472 195.67856376 68.56098381 209.11912155 68.55925715 222.55976701 C68.55859394 230.10202542 68.5640558 237.64416307 68.58561325 245.18639374 C68.60385305 251.6089302 68.60814959 258.03129118 68.5945944 264.45384237 C68.58807847 267.7280951 68.59008449 271.00194271 68.6053009 274.27617645 C68.62075711 277.83283385 68.61144136 281.38861272 68.59603882 284.94525146 C68.60632594 285.97036827 68.61661307 286.99548507 68.62721193 288.05166602 C68.54018598 297.16996364 66.12034856 305.1401208 59.8046875 311.90234375 C52.73262364 318.26071309 45.3662154 320.75205379 35.89306641 320.66064453 C35.09239746 320.66093658 34.29172852 320.66122864 33.46679688 320.66152954 C30.83712689 320.6601433 28.2077451 320.64461554 25.578125 320.62890625 C23.74824173 320.62517361 21.91835645 320.62232782 20.08847046 320.62033081 C15.28475373 320.61271414 10.48115896 320.59308257 5.67749023 320.57092285 C0.77068735 320.55042202 -4.13613534 320.54132004 -9.04296875 320.53125 C-18.66151176 320.50983479 -28.27996447 320.47572263 -37.8984375 320.43359375 C-37.96715288 283.6935828 -38.01999128 246.95358156 -38.05163349 210.21351932 C-38.05538546 205.87281486 -38.05926844 201.53211052 -38.06323242 197.19140625 C-38.06401935 196.32727569 -38.06480628 195.46314513 -38.06561706 194.5728288 C-38.0786594 180.59381915 -38.10230678 166.61484663 -38.12989589 152.63585898 C-38.15798272 138.28464587 -38.17462069 123.93345216 -38.18070298 109.58221269 C-38.18481263 100.73173386 -38.19777739 91.88136001 -38.2221869 83.0309135 C-38.23808457 76.95605436 -38.24282876 70.88124924 -38.23894163 64.80637082 C-38.23702634 61.30515158 -38.23989472 57.80411536 -38.25605392 54.30292892 C-38.27104119 50.49719791 -38.2673679 46.69191134 -38.25920105 42.88616943 C-38.26793957 41.79274853 -38.2766781 40.69932762 -38.28568143 39.57277274 C-38.21324902 27.03319748 -35.80996584 17.53114667 -27.01171875 8.49609375 C-18.7890975 0.7419519 -10.93176182 -0.02733198 0 0 Z " fill="#ffffff" transform="translate(379.8984375,159.56640625)"/>
<path d="M0 0 C1.22212189 -0.01921509 2.44424377 -0.03843018 3.70339966 -0.05822754 C5.01283539 -0.06672729 6.32227112 -0.07522705 7.67138672 -0.08398438 C8.34595791 -0.08963913 9.0205291 -0.09529388 9.71554184 -0.10112 C13.28905524 -0.13101275 16.86240922 -0.14952613 20.43603516 -0.15820312 C24.09429183 -0.16912964 27.75104341 -0.21711325 31.40883064 -0.27414703 C34.25049843 -0.31173887 37.09181678 -0.32182879 39.93371201 -0.32487488 C41.92767449 -0.33373461 43.92144854 -0.37086539 45.91506958 -0.40881348 C56.49728084 -0.35763319 64.81283127 2.5344435 72.72607422 9.69726562 C77.77594332 15.25212164 80.85321475 21.87512698 80.84912205 29.42206955 C80.8511131 30.23469812 80.85310414 31.04732669 80.85515553 31.88458037 C80.85224269 32.77173806 80.84932984 33.65889575 80.84632874 34.57293701 C80.84718316 35.51965531 80.84803759 36.4663736 80.8489179 37.44178033 C80.85056817 40.62168776 80.84505869 43.80154272 80.83959961 46.98144531 C80.83931761 49.25786844 80.83947571 51.53429165 80.84004211 53.81071472 C80.84032961 59.99830498 80.83444061 66.18587595 80.82746816 72.37346172 C80.82122665 78.83704722 80.82063019 85.30063314 80.81944275 91.76422119 C80.81668548 102.61544164 80.81043472 113.46665415 80.80151367 124.31787109 C80.79233454 135.49462855 80.78526762 146.67138407 80.78100586 157.84814453 C80.78073786 158.54411574 80.78046986 159.24008695 80.78019375 159.95714819 C80.7778809 166.01110431 80.7757281 172.06506047 80.77359104 178.11901665 C80.76418153 204.18677298 80.74426102 230.25451052 80.72607422 256.32226562 C43.76607422 256.32226562 6.80607422 256.32226562 -31.27392578 256.32226562 C-31.39483488 199.54872476 -31.39483488 199.54872476 -31.42041016 175.76367188 C-31.42630085 170.32893854 -31.43234479 164.89420544 -31.4387207 159.45947266 C-31.43951195 158.77835297 -31.4403032 158.09723328 -31.44111842 157.3954736 C-31.4541529 146.41101082 -31.47779692 135.42659533 -31.50538417 124.44216056 C-31.53347623 113.16233289 -31.54988563 101.88252876 -31.55619127 90.60266435 C-31.56009961 84.26980795 -31.56927503 77.93705865 -31.59111595 71.6042366 C-31.61151712 65.64040846 -31.61775217 59.67673128 -31.61324883 53.71287155 C-31.61407239 51.52721079 -31.62001626 49.34154484 -31.63154221 47.15591431 C-31.64654299 44.1639502 -31.64285164 41.17255061 -31.63468933 38.18057251 C-31.64342786 37.32256471 -31.65216638 36.46455692 -31.66116971 35.58054888 C-31.58705957 25.47952358 -28.77272991 17.30742696 -21.96142578 9.75976562 C-15.22140571 3.64672417 -9.38656771 0.11983416 0 0 Z " fill="#ffffff" transform="translate(230.27392578125,223.677734375)"/>
<path d="M0 0 C0 68.64 0 137.28 0 208 C-86.58522727 208 -86.58522727 208 -95.46875 199.703125 C-101.36230056 193.14805346 -104.24190185 186.1156262 -104.26742554 177.27154541 C-104.27422221 176.29438651 -104.27422221 176.29438651 -104.28115618 175.29748702 C-104.29375295 173.1282643 -104.29218291 170.95929417 -104.29052734 168.79003906 C-104.29651563 167.22904134 -104.30332187 165.66804657 -104.31088257 164.10705566 C-104.32852109 159.87545362 -104.33323709 155.64393251 -104.33451414 151.41229725 C-104.33593773 148.76518988 -104.34021132 146.11810295 -104.34550858 143.47100067 C-104.3640031 134.2264221 -104.37218008 124.98190114 -104.37060547 115.73730469 C-104.36940484 107.13605377 -104.39049308 98.53505411 -104.4220928 89.93386674 C-104.44829558 82.53661114 -104.45897106 75.13943738 -104.45769465 67.74213576 C-104.45718611 63.32975282 -104.46280909 58.91759315 -104.48405075 54.50525665 C-104.50350029 50.35188066 -104.50351212 46.19893935 -104.48901749 42.04554749 C-104.48693645 40.5274822 -104.491588 39.00938924 -104.5037384 37.49137115 C-104.58641565 26.43975 -103.5336088 16.91540437 -95.703125 8.53125 C-71.46436686 -13.26139493 -21.52399702 0 0 0 Z " fill="#ffffff" transform="translate(168,272)"/>
<path d="M0 0 C1.12233032 -0.0098568 1.12233032 -0.0098568 2.26733398 -0.01991272 C4.75032652 -0.03966513 7.23325838 -0.05131536 9.71630859 -0.0612793 C10.98938936 -0.06739259 10.98938936 -0.06739259 12.28818893 -0.07362938 C16.78424588 -0.09450287 21.28027224 -0.1087965 25.77636719 -0.11816406 C30.4099654 -0.12920416 35.04308014 -0.16357232 39.67650795 -0.20333576 C43.24715027 -0.22955193 46.81767857 -0.23786054 50.38840866 -0.24144554 C52.09555688 -0.24630213 53.80270032 -0.25788961 55.50975418 -0.27648354 C72.24260392 -0.44734864 72.24260392 -0.44734864 78.73974609 4.17700195 C83.00614427 9.53734837 83.89079487 13.73479096 83.91674805 20.39892578 C83.92331924 21.13099747 83.92989044 21.86306915 83.93666077 22.61732483 C83.95636818 25.03956203 83.96805042 27.46173731 83.97802734 29.8840332 C83.98210287 30.71226782 83.9861784 31.54050243 83.99037743 32.39383507 C84.01122694 36.77736536 84.02553367 41.16086446 84.03491211 45.54443359 C84.04597624 50.06722491 84.08037907 54.5895242 84.12008381 59.11214161 C84.14625264 62.5943441 84.15460415 66.07642937 84.15819359 69.55872154 C84.16305862 71.22565727 84.17467029 72.89258778 84.19323158 74.55942726 C84.21763045 76.89564443 84.21665732 79.23058845 84.2097168 81.56689453 C84.22893188 82.59345154 84.22893188 82.59345154 84.24853516 83.64074707 C84.19511336 88.59061149 82.79738891 91.34716983 79.73974609 95.17700195 C75.3067266 99.17753174 71.98106211 100.56185584 65.93115234 100.45043945 C61.36881036 99.88116327 57.37260927 98.12043852 54.38427734 94.5637207 C50.20822577 87.7644454 50.4962033 80.0197205 50.17724609 72.30200195 C50.1340625 71.3274707 50.09087891 70.35293945 50.04638672 69.34887695 C49.94092335 66.95837394 49.83880434 64.56777752 49.73974609 62.17700195 C48.97404297 63.23274414 48.97404297 63.23274414 48.19287109 64.30981445 C34.80786013 82.48874779 19.63658757 99.3279525 1.73974609 113.17700195 C0.68717971 114.02896787 -0.36350858 114.88325781 -1.41259766 115.73950195 C-16.32877478 127.83000432 -32.50873939 137.84814729 -49.26025391 147.17700195 C-49.99228027 147.59159668 -50.72430664 148.00619141 -51.47851562 148.43334961 C-108.7162097 180.71832662 -108.7162097 180.71832662 -130.26025391 176.17700195 C-135.14490641 173.90912758 -137.99237953 171.06165446 -140.26025391 166.17700195 C-141.01406926 160.57723075 -141.03328966 155.84200204 -138.63525391 150.67700195 C-132.709205 144.43905574 -126.00206303 142.61034764 -117.94775391 140.11450195 C-85.16435783 129.54421675 -53.29311915 113.68575995 -26.26025391 92.17700195 C-25.32955078 91.43836914 -24.39884766 90.69973633 -23.43994141 89.9387207 C-3.17897293 73.60014028 13.24662245 55.71986722 27.73974609 34.17700195 C26.62901733 34.13941772 26.62901733 34.13941772 25.49584961 34.10107422 C22.0978496 33.98408476 18.70005792 33.86183048 15.30224609 33.73950195 C13.55524414 33.68052734 13.55524414 33.68052734 11.77294922 33.62036133 C-7.76571508 32.90486095 -7.76571508 32.90486095 -13.26025391 28.17700195 C-16.86109447 23.89492129 -18.51277226 19.78501367 -18.26025391 14.17700195 C-17.06353844 7.95178017 -14.36696808 4.76256722 -9.26025391 1.17700195 C-6.29034062 -0.30795469 -3.2576011 0.01234413 0 0 Z " fill="#ffffff" transform="translate(252.26025390625,31.822998046875)"/>
</svg>