<svg version="1.1" xmlns="http://www.w3.org/2000/svg" width="512px" height="512px" transform="rotate(0) scale(1, 1)">
<path d="M0 0 C0.84986984 -0.00570007 1.69973969 -0.01140015 2.57536316 -0.01727295 C4.36785667 -0.02666068 6.16036696 -0.03323192 7.95288086 -0.03710938 C10.62321358 -0.04671402 13.29274108 -0.07775513 15.96289062 -0.109375 C28.17739992 -0.18460521 39.84839033 0.9852604 51.85546875 3.203125 C52.90549072 3.39664551 53.9555127 3.59016602 55.03735352 3.78955078 C57.45090354 4.2729429 59.83931814 4.80718528 62.23046875 5.390625 C63.0814917 5.5971167 63.93251465 5.8036084 64.80932617 6.01635742 C80.18981359 9.92008431 95.0147302 15.62750804 108.96533203 23.18212891 C110.87541495 24.21389935 112.79986515 25.21450829 114.7265625 26.21484375 C131.33554108 35.01184098 145.94283123 46.54237963 159.31152344 59.68994141 C160.65568161 61.00731844 162.02319214 62.30078499 163.39453125 63.58984375 C194.80989776 93.61760574 213.29382661 136.89018268 219.85546875 179.203125 C219.85546875 179.863125 219.85546875 180.523125 219.85546875 181.203125 C221.11359375 181.55375 222.37171875 181.904375 223.66796875 182.265625 C238.67308967 187.32220964 250.9432828 199.10368053 258.2890625 212.89453125 C259.61097544 215.65211224 260.80731776 218.3278889 261.85546875 221.203125 C262.10335144 221.87890594 262.35123413 222.55468689 262.60662842 223.25094604 C265.55093879 232.4368899 265.32876762 241.54918747 265.32421875 251.08984375 C265.33133751 252.91909513 265.33903895 254.74834432 265.34729004 256.57759094 C265.36067799 260.39936536 265.36233018 264.22093343 265.35644531 268.04272461 C265.35056576 272.89629533 265.38109522 277.74886005 265.42156219 282.60223675 C265.44764915 286.37825177 265.45029757 290.1540316 265.44667053 293.93012428 C265.44834336 295.71717663 265.45780471 297.50424208 265.47581482 299.29120445 C265.66671734 320.57722989 259.98975233 336.78230593 244.85546875 352.203125 C244.24058594 352.8425 243.62570312 353.481875 242.9921875 354.140625 C232.88441756 363.83715804 217.70962467 369.43106478 203.81445312 370.41943359 C200.70578378 370.91078665 200.70578378 370.91078665 199.203125 373.46191406 C198.77902344 374.45416992 198.35492188 375.44642578 197.91796875 376.46875 C197.42264648 377.57669922 196.92732422 378.68464844 196.41699219 379.82617188 C195.90168945 381.02306641 195.38638672 382.21996094 194.85546875 383.453125 C193.73643646 385.93733379 192.59121735 388.4085589 191.43359375 390.875 C191.14188293 391.49656982 190.85017212 392.11813965 190.54962158 392.75854492 C184.06696947 406.31774087 174.85648643 419.0102762 164.85546875 430.203125 C164.41025879 430.70714844 163.96504883 431.21117187 163.50634766 431.73046875 C130.89394031 468.52282279 86.29085224 493.05414652 36.85546875 497.203125 C33.93330387 497.30647422 31.01733001 497.29405382 28.09375 497.2734375 C26.46418197 497.28201194 24.83462302 497.29248417 23.20507812 497.3046875 C20.67661912 497.32143063 18.15024108 497.32794822 15.62182617 497.30273438 C6.18441467 496.82545188 6.18441467 496.82545188 -2.44116211 499.70068359 C-3.89493868 501.46217348 -4.99506197 503.23615119 -6.14453125 505.203125 C-8.8125 507.1640625 -8.8125 507.1640625 -11.33203125 508.578125 C-12.59080078 509.30128906 -12.59080078 509.30128906 -13.875 510.0390625 C-25.48650771 515.99470673 -41.03493008 511.71474079 -52.74072266 507.99462891 C-68.38329345 502.84398758 -80.83789543 497.94651583 -88.95703125 482.828125 C-91.6013717 475.06227459 -91.70648457 463.79464678 -88.51953125 456.140625 C-87.3984375 454.1171875 -87.3984375 454.1171875 -86.14453125 452.203125 C-85.72042969 451.50960938 -85.29632813 450.81609375 -84.859375 450.1015625 C-79.6880457 442.40939023 -72.64608706 438.29213665 -63.89453125 435.6484375 C-55.86480032 434.34816857 -48.85433761 435.69593405 -41.08203125 437.828125 C-39.57455322 438.23417969 -39.57455322 438.23417969 -38.03662109 438.6484375 C-6.02966478 447.47371602 -6.02966478 447.47371602 1.85546875 461.203125 C1.85546875 461.863125 1.85546875 462.523125 1.85546875 463.203125 C49.49270698 464.3499474 92.14574088 450.03997245 127.0625 416.9609375 C143.62525241 400.60666729 155.56812348 381.98448097 165.85546875 361.203125 C165.13875 360.95304687 164.42203125 360.70296875 163.68359375 360.4453125 C150.7256133 354.75382385 141.49578152 341.43671363 136.17105103 328.77758789 C131.92968368 317.25370948 131.40010587 305.64291293 131.45703125 293.515625 C131.45500156 291.95873886 131.45208278 290.40185365 131.44833374 288.8449707 C131.44395232 285.6078166 131.45020434 282.37091358 131.46435547 279.13378906 C131.48144495 275.02926124 131.47158097 270.92532238 131.45363808 266.82081604 C131.44268572 263.61360407 131.44629835 260.40652681 131.45402145 257.1993103 C131.45599202 255.68777391 131.45367786 254.1762244 131.44658279 252.66470337 C131.3677886 231.17372872 136.23047453 212.65664025 151.04296875 196.453125 C156.26271535 191.51922166 162.75546285 187.93419657 168.85546875 184.203125 C168.78081705 167.92905468 161.86352878 151.64114744 154.85546875 137.203125 C154.55946777 136.58131348 154.2634668 135.95950195 153.95849609 135.31884766 C136.50527714 99.06405194 103.47264659 72.09911136 66.13574219 58.18994141 C55.29056094 54.46153309 44.19080379 51.89647494 32.85546875 50.203125 C31.97761719 50.07164063 31.09976562 49.94015625 30.1953125 49.8046875 C-9.57339769 45.1408451 -53.20628553 55.65982232 -85.14453125 80.265625 C-90.6684905 84.7083576 -95.99560052 89.33137977 -101.14453125 94.203125 C-101.96566406 94.97140625 -102.78679687 95.7396875 -103.6328125 96.53125 C-125.19572648 117.32286223 -138.78575419 144.88166683 -145.51953125 173.828125 C-145.69967773 174.58665771 -145.87982422 175.34519043 -146.06542969 176.12670898 C-147.32372185 181.73678782 -147.32372185 181.73678782 -146.14453125 187.203125 C-143.94101308 189.19376323 -143.94101308 189.19376323 -141.14453125 190.890625 C-127.92609786 200.02866001 -119.1497825 213.14329518 -115.54670715 228.80107117 C-113.99432325 237.39847925 -113.83456251 245.89187566 -113.84375 254.59765625 C-113.83984959 256.15882986 -113.83551224 257.72000244 -113.83076477 259.28117371 C-113.8233534 262.53619848 -113.82355626 265.7911147 -113.82885742 269.04614258 C-113.83464124 273.17426904 -113.8177225 277.30194524 -113.79451275 281.42999744 C-113.77962987 284.65006516 -113.77892331 287.8700281 -113.78202248 291.09012413 C-113.78151641 292.61004209 -113.7764165 294.12996707 -113.76621056 295.64985085 C-113.68999084 308.58575004 -114.47729011 321.8370432 -120.76953125 333.453125 C-121.11725586 334.11513916 -121.46498047 334.77715332 -121.82324219 335.45922852 C-130.71208946 351.80765035 -144.74046325 362.79678207 -162.515625 368.234375 C-181.14562428 372.80200252 -198.97604637 370.28592995 -215.8203125 361.31640625 C-230.89872482 351.73071757 -241.88730286 336.97865987 -246.49557495 319.70300293 C-247.86851223 312.2986324 -247.59462148 304.75286211 -247.578125 297.24609375 C-247.58269674 295.41205148 -247.58800524 293.57801092 -247.5940094 291.74397278 C-247.60290357 287.91379811 -247.60056062 284.08383235 -247.59057617 280.25366211 C-247.57910504 275.38208414 -247.59928854 270.51123308 -247.62849331 265.63975048 C-247.64697669 261.85524529 -247.64653863 258.07091031 -247.64085579 254.28637123 C-247.64070398 252.49209895 -247.6466301 250.69781406 -247.65914726 248.90358543 C-247.78377367 228.11125443 -242.66913641 211.71965442 -228.14453125 196.203125 C-219.75351359 188.12446333 -208.87182885 181.38032514 -197.14453125 180.203125 C-197.06976563 179.37554687 -196.995 178.54796875 -196.91796875 177.6953125 C-192.11241617 134.06843317 -169.86965987 91.22531431 -138.14453125 61.203125 C-137.34660156 60.40519531 -136.54867187 59.60726562 -135.7265625 58.78515625 C-100.67341144 23.73200519 -49.95006268 0.26951875 0 0 Z " fill="#ffffff" transform="translate(247.14453125,-0.203125)"/>
</svg>