<svg version="1.0" xmlns="http://www.w3.org/2000/svg" width="512.000000ptpx" height="512.000000ptpx" viewBox="0 0 512.000000 512.000000" preserveAspectRatio="xMidYMid meet" transform="rotate(0) scale(1, 1)">

<g transform="translate(0.000000,512.000000) scale(0.100000,-0.100000)" fill="#FB8F10" stroke="none">
<path d="M1505 5101 c-170 -78 -177 -305 -12 -394 l42 -22 1420 -3 1420 -2&#10;-2177 -2178 c-2015 -2016 -2177 -2180 -2188 -2222 -44 -167 103 -314 270 -270&#10;42 11 206 173 2222 2188 l2178 2177 2 -1420 3 -1420 22 -42 c57 -106 191 -151&#10;293 -98 41 21 88 75 105 119 14 36 15 231 13 1747 l-3 1706 -30 49 c-23 37&#10;-44 56 -84 77 l-55 27 -1700 0 c-1629 0 -1703 -1 -1741 -19z"/>
</g>
</svg>