<svg version="1.2" xmlns="http://www.w3.org/2000/svg" viewBox="0 0 249 76" width="249" height="76">
	<title>Screenshot 2025-08-11 182550</title>
	<style>
		.s0 { fill: #ffffff } 
	</style>
	<path id="closedby." class="s0" aria-label="closedby."  d="m5.3 9q4.1-3.8 10.6-3.8 6.4 0 10.5 3.8 4 3.9 4 9.9v12.9h-12.7v-12.8q0-2.1-1.8-2.1-2 0-2 2.1v37q0 2.1 2 2.1 1.8 0 1.8-2.1v-13.1h12.7v13.1q0 6-4 10-4.1 3.8-10.5 3.8-6.6 0-10.6-3.8-4-4-4-10v-37.1q0-6 4-9.9zm27.8-3h12.6v51.2h10.9v11.8h-23.5zm29.2 3.1q4.1-3.9 10.6-3.9 6.6 0 10.6 3.9 4 3.9 4 9.9v37q0 6-4 10-4 3.8-10.6 3.8-6.5 0-10.6-3.8-4-4-4-10v-37q0-6 4-9.9zm12.5 46.9v-37q0-2.1-1.9-2.1-1.9 0-1.9 2.1v37q0 2.1 1.9 2.1 1.9 0 1.9-2.1zm43.2-36.8v7.4h-12.6v-7.9q0-1.7-1.4-1.7-0.6 0-1 0.5-0.4 0.4-0.4 1.2v4.6q0 2.6 0.8 4 0.8 1.2 5.2 4.7 5.5 4.2 7.5 7.8 2 3.4 2 7.9v8.2q0 6.7-3.9 10.3-3.7 3.6-10.2 3.6-6.4 0-10.3-3.6-3.7-3.6-3.7-10.3v-7.5h12.5v7.9q0 1.7 1.5 1.7 1.5 0 1.5-1.7v-5.9q0-0.9-0.2-1.6 0-0.8-0.1-1.3-0.1-0.6-0.5-1.2-0.4-0.7-0.5-1-0.2-0.3-1-0.9-0.6-0.7-0.9-0.9-0.2-0.3-1.3-1.1-1-0.9-1.5-1.2-5.8-4.9-7.7-8.1-1.8-3.2-1.8-7.9v-6q0-6.4 3.8-10.2 3.9-3.8 10.2-3.8 6.3 0 10.2 3.8 3.8 3.8 3.8 10.2zm15.3 22.9v15.1h10.4v11.8h-23v-63h23v11.8h-10.4v12.6h7.9v11.7zm12.9-36.1h14.3q6.6 0 10.6 3.9 4 3.9 4 10v35.2q0 6.1-4 10-4 3.9-10.6 3.9h-14.3zm16.3 49.1v-35.2q0-2.1-2-2.1h-1.7v39.4h1.7q2 0 2-2.1zm40.4-19.7q4.2 3.5 4.2 9.4v10.4q0 6.1-4.2 9.9-4 3.9-10.5 3.9h-14.6v-63h14.2q6.6 0 10.6 3.9 4 3.9 4 10v6.4q0 5.6-3.7 9.1zm-10.9-17.6h-1.6v11.9h1.6q2 0 2-2.1v-7.7q0-2.1-2-2.1zm2.4 37.3v-11.6q0-2.1-2-2.1h-2v15.8h2q2 0 2-2.1zm29.6-49.1h12.6l-9.1 43.3v19.7h-12.6v-19.7l-9.2-43.3h12.9l2.7 23.4zm20.2 61.8q-1.9 1.9-5 1.9-3.2 0-5.1-1.9-1.9-2-1.9-5.1 0-3.1 1.9-5 1.9-1.9 5.1-1.9 3.1 0 5 1.9 1.9 1.9 1.9 5 0 3.1-1.9 5.1z"/>
</svg>